<svg width="544" height="518" viewBox="0 0 544 518" fill="none" xmlns="http://www.w3.org/2000/svg">
<rect width="544" height="518" rx="259" fill="white"/>
<path d="M281.613 408.077C288.671 417.912 264.413 462.398 283.5 447.501C300.203 434.464 308.939 415.453 311.603 408.858C312.181 407.427 311.795 405.815 310.69 404.738L280.944 375.786C278.544 373.45 279.886 369.309 283.187 368.74C297.141 366.332 323.303 360.547 315.5 352.001C305.918 341.506 275.103 350.165 269.785 351.76C269.257 351.918 268.708 351.975 268.161 351.899C259.022 350.627 255.774 344.628 254.624 340.786C254.068 338.927 255.373 337.199 257.256 336.728C267.883 334.071 300.185 324.845 288 313.501C274.773 301.186 243.241 315.914 237.805 318.596C237.264 318.863 236.674 319.016 236.071 319.01C224.157 318.895 221.905 309.539 221.533 304.754C221.405 303.099 222.54 301.702 224.116 301.183C231.954 298.601 253.95 290.301 241.5 282.001C229.824 274.217 217.24 279.459 212.235 282.165C210.841 282.919 209.096 282.998 207.855 282.012C201.314 276.815 202.152 270.372 202.967 267.502C203.247 266.514 204.031 265.798 204.969 265.38C210.026 263.122 226.156 254.853 221.5 243.001C216.82 231.088 198.382 243.431 192.989 247.376C192.029 248.078 190.805 248.397 189.687 247.992C182.211 245.284 183.535 237.099 184.488 233.607C184.773 232.564 185.55 231.772 186.529 231.312C192.247 228.631 211.853 218.415 208 206.001C205.054 196.507 193.747 199.445 186.292 202.606C183.328 203.862 179.65 201.635 179.588 198.416C179.286 182.578 175.83 148.017 151 155.001C125.722 162.11 146.308 198.86 156.072 213.985C157.85 216.739 155.871 220.771 152.69 221.561C146.192 223.175 138 227.243 138 237.501C138 251.929 154.207 245.828 159.111 243.652C160.017 243.249 161.045 243.129 161.981 243.456C170.648 246.484 169.442 253.057 168.503 255.781C168.223 256.594 167.584 257.2 166.824 257.601C161.737 260.288 142.27 271.525 151 282.001C159.286 291.943 173.406 281.291 178.005 277.346C178.971 276.517 180.256 276.089 181.476 276.449C188.575 278.544 188.454 284.446 187.92 287.348C187.722 288.422 186.945 289.243 185.964 289.724C179.614 292.837 156.278 305.542 168 319.001C179.105 331.751 191.902 317.773 196.093 312.412C196.998 311.254 198.428 310.567 199.88 310.797C215.061 313.21 213.879 323.783 212.922 327.611C212.694 328.526 212.065 329.235 211.248 329.705C204.916 333.35 177.282 350.281 191.5 360.501C205.137 370.302 221.318 352.135 225.799 346.556C226.58 345.583 227.742 344.963 228.988 345.01C242.468 345.525 242.335 355.314 241.785 359.06C241.647 360 241.08 360.782 240.305 361.331C234.608 365.372 210.905 383.113 221.5 391.501C231.698 399.574 245.868 383.454 249.894 378.43C250.616 377.529 251.67 376.921 252.824 376.904C264.639 376.725 264.078 386.125 263.369 389.931C263.179 390.951 262.504 391.77 261.615 392.305C256.165 395.581 236.942 408.285 246 419.501C254.713 430.288 272.034 414.22 277.677 408.439C278.809 407.28 280.668 406.761 281.613 408.077Z" fill="white" stroke="url(#paint0_linear_272_30)" stroke-width="8"/>
<path d="M289.488 367.805C297.717 393.08 264.967 476.479 282.913 442.581C297.96 414.16 303.224 368.27 304.546 353.975C304.765 351.614 306.948 349.905 309.312 350.094C317.423 350.74 333.913 350.523 333.913 338.081C333.913 323.483 311.214 324.148 305.981 324.495C305.272 324.543 304.565 324.438 303.944 324.093C296.751 320.098 298.632 311.984 300.03 308.162C300.513 306.842 301.752 306.029 303.151 305.892C311.543 305.076 340.338 301.214 333.913 287.081C327.782 273.591 306.946 278.816 299.547 281.172C297.948 281.681 296.116 281.27 295.282 279.814C292.131 274.315 294.036 268.303 295.567 265.034C296.281 263.509 297.997 262.855 299.646 263.196C308.748 265.075 337.281 269.525 333.913 250.581C330.6 231.945 305.334 240.064 296.754 243.402C295.056 244.062 293.086 243.608 292.064 242.1C286.437 233.804 287.178 226.71 288.268 222.952C288.776 221.199 290.623 220.426 292.398 220.85C301.33 222.979 327.155 227.809 325.913 212.081C324.713 196.874 299.173 196.72 289.021 197.265C286.763 197.386 284.742 195.703 284.72 193.441C284.55 175.71 293.993 176.858 296.374 177.428C296.739 177.516 297.052 177.681 297.363 177.891C300.785 180.201 322.862 194.158 333.913 177.581C344.284 162.024 309.093 163.273 299.347 163.899C297.84 163.996 296.369 163.288 295.747 161.911C292.299 154.279 296.113 147.7 298.778 144.381C299.934 142.942 301.961 142.82 303.501 143.838C312.753 149.959 343.54 168.843 341.413 147.581C339.564 129.087 316.098 123.453 304.01 121.773C300.913 121.343 299.077 117.724 300.686 115.043C309.394 100.543 328.415 65.0889 304.913 67.0806C283.289 68.9132 279.934 93.3142 279.684 106.212C279.62 109.487 275.877 111.856 272.9 110.488C262.777 105.836 245.042 99.8902 242.913 114.081C240.425 130.668 263.044 132.123 270.835 132.136C272.414 132.139 273.926 132.97 274.443 134.462C277.2 142.411 273.01 149.476 270.171 153.071C268.96 154.603 266.791 154.715 265.195 153.591C256.332 147.352 228.604 129.868 224.413 152.081C219.965 175.659 252.724 173.508 260.001 172.748C260.93 172.651 261.891 172.815 262.519 173.505C265.906 177.227 265.282 186.327 264.57 191.609C264.273 193.81 262.141 195.211 259.941 194.902C251.291 193.688 231.365 192.42 229.413 206.081C227.174 221.757 256.633 218.576 262.795 217.743C263.539 217.642 264.296 217.724 264.962 218.071C271.28 221.364 266.538 225.983 264.621 227.542C264.164 227.914 263.617 228.128 263.039 228.238C257.748 229.242 230.393 235.212 234.913 250.581C239.349 265.661 261.883 259.101 266.916 257.428C267.582 257.206 268.284 257.124 268.963 257.308C276.666 259.392 275.499 268.958 274.303 273.981C273.867 275.815 272.097 276.908 270.217 276.753C260.693 275.971 233.259 275.207 234.913 292.581C236.687 311.208 265.606 302.297 272.118 300.046C272.973 299.75 273.904 299.698 274.708 300.112C280.147 302.911 280.571 311.045 280.303 315.868C280.186 317.969 278.299 319.416 276.196 319.31C266.891 318.839 243.504 319.027 245.913 333.081C248.426 347.738 270.581 346.611 277.712 345.859C279.09 345.713 280.482 346.205 281.286 347.333C286.39 354.5 288.979 365.606 289.363 367.347C289.399 367.509 289.437 367.648 289.488 367.805Z" fill="white" stroke="url(#paint1_linear_272_30)" stroke-width="8"/>
<path d="M301.177 393.788C309.413 405.917 261.969 458.849 281.047 450.043C296.814 442.766 316.83 421.106 323.916 413.08C325.385 411.416 327.92 411.196 329.685 412.541C337.377 418.404 356.547 431.33 356.547 414.543C356.547 396.664 342.05 393.645 337.741 393.142C336.959 393.051 336.186 392.819 335.6 392.294C329.761 387.064 332.509 376.88 334.719 371.173C335.588 368.932 338.296 368.241 340.326 369.529C350.403 375.919 376.983 391.127 374.547 372.043C372.019 352.24 350.317 350.19 343.552 350.035C342.289 350.006 341.022 349.488 340.415 348.38C335.591 339.566 345.933 327.24 351.205 321.804C352.736 320.226 355.234 320.345 356.807 321.881C363.739 328.646 381.638 343.78 386.047 324.543C390.595 304.696 367.446 301.262 359.299 300.668C357.636 300.546 356.106 299.512 355.811 297.871C354.428 290.157 359.301 283.001 362.321 279.427C363.549 277.975 365.654 277.838 367.233 278.896C376.424 285.052 406.047 303.32 406.047 283.043C406.047 266.587 388.181 260.945 376.95 259.023C373.539 258.439 371.719 253.971 373.915 251.297C384.797 238.048 405.042 209.288 382.547 202.043C363.312 195.849 355.343 218.564 352.127 235.123C351.332 239.215 344.015 240.751 341.134 237.738C336.045 232.417 329.426 229.192 323.047 237.043C312.094 250.524 333.795 260.101 340.901 262.782C342.223 263.281 343.263 264.395 343.491 265.79C345.677 279.211 337.766 283.961 333.969 285.445C332.787 285.907 331.504 285.543 330.528 284.732C325.013 280.148 306.079 266.021 300.547 283.043C295.025 300.033 321.617 303.673 329.746 304.384C331.174 304.508 332.508 305.315 332.926 306.686C335.253 314.318 329.492 322.211 325.818 326.267C324.355 327.882 321.87 327.761 320.279 326.27C313.912 320.306 298.083 307.899 289.047 322.043C278.861 337.986 309.468 349.222 316.598 351.582C317.54 351.894 318.364 352.507 318.771 353.413C322.363 361.394 314.242 367.754 309.759 370.53C308.205 371.492 306.227 371.062 304.961 369.742C299.252 363.795 283.099 349.338 272.547 363.543C260.711 379.476 293.635 390.85 299.628 392.759C300.238 392.953 300.818 393.259 301.177 393.788Z" fill="white" stroke="url(#paint2_linear_272_30)" stroke-width="8"/>
<defs>
<linearGradient id="paint0_linear_272_30" x1="138" y1="154" x2="317" y2="451" gradientUnits="userSpaceOnUse">
<stop stop-color="#5218FA"/>
<stop offset="1" stop-color="#00D0F4"/>
</linearGradient>
<linearGradient id="paint1_linear_272_30" x1="224" y1="67" x2="342" y2="451" gradientUnits="userSpaceOnUse">
<stop stop-color="#5218FA"/>
<stop offset="1" stop-color="#00D0F4"/>
</linearGradient>
<linearGradient id="paint2_linear_272_30" x1="270" y1="201" x2="406" y2="451" gradientUnits="userSpaceOnUse">
<stop stop-color="#5218FA"/>
<stop offset="1" stop-color="#00D0F4"/>
</linearGradient>
</defs>
</svg>
