<svg width="256" height="244" viewBox="0 0 256 244" fill="none" xmlns="http://www.w3.org/2000/svg">
<rect width="256" height="244" rx="122" fill="white"/>
<path fill-rule="evenodd" clip-rule="evenodd" d="M164.018 127.104L135.497 71.6463V116.688C135.497 116.77 135.517 116.851 135.555 116.923L136.623 118.924C138.819 123.043 137.985 128.123 134.585 131.323L134.476 131.426C130.555 135.116 124.439 135.116 120.518 131.426C117.031 128.144 116.301 122.877 118.765 118.772L119.925 116.837C119.972 116.76 119.997 116.671 119.997 116.58V71.8275L91.981 127.07C91.9128 127.204 91.9089 127.362 91.9705 127.5L107.265 161.688H149.201L164.032 127.532C164.091 127.394 164.086 127.237 164.018 127.104ZM156.832 161.688L170.453 130.32C171.348 128.257 171.271 125.902 170.243 123.902L136.998 59.2609C134.839 55.0627 128.497 56.598 128.497 61.3189V116.688C128.497 117.919 128.8 119.131 129.379 120.217L130.446 122.218C131.156 123.549 130.886 125.191 129.788 126.225L129.678 126.328C128.453 127.482 126.541 127.482 125.315 126.328C124.225 125.303 123.997 123.656 124.767 122.373L125.928 120.439C126.627 119.273 126.997 117.939 126.997 116.58V61.3707C126.997 56.6361 120.625 55.1127 118.483 59.3353L85.738 123.904C84.7146 125.921 84.6569 128.293 85.5808 130.359L99.5966 161.688H98.9967C94.8545 161.688 91.4967 165.046 91.4967 169.188V179.688C91.4967 183.83 94.8545 187.188 98.9967 187.188H157.997C162.139 187.188 165.497 183.83 165.497 179.688V169.188C165.497 165.046 162.139 161.688 157.997 161.688H156.832ZM98.4967 169.188C98.4967 168.912 98.7205 168.688 98.9967 168.688H157.997C158.273 168.688 158.497 168.912 158.497 169.188V179.688C158.497 179.964 158.273 180.188 157.997 180.188H98.9967C98.7205 180.188 98.4967 179.964 98.4967 179.688V169.188Z" fill="url(#paint0_linear_245_33)"/>
<defs>
<linearGradient id="paint0_linear_245_33" x1="84.9966" y1="57.188" x2="170.997" y2="187.188" gradientUnits="userSpaceOnUse">
<stop stop-color="#5218FA"/>
<stop offset="1" stop-color="#00D0F4"/>
</linearGradient>
</defs>
</svg>
