<svg width="256" height="244" viewBox="0 0 256 244" fill="none" xmlns="http://www.w3.org/2000/svg">
<rect width="256" height="244" rx="122" fill="white"/>
<path fill-rule="evenodd" clip-rule="evenodd" d="M151.695 56.6121C152.324 54.4942 151.116 52.268 148.998 51.6397C146.88 51.0114 144.654 52.219 144.026 54.3369L104.556 187.388C103.928 189.506 105.135 191.732 107.253 192.36C109.371 192.989 111.598 191.781 112.226 189.663L151.695 56.6121ZM93.4845 78.5924C91.8802 77.0738 89.3485 77.1433 87.8298 78.7476L51.0036 117.653C48.0506 120.772 48.0885 125.667 51.0895 128.741L87.8728 166.414C89.4161 167.995 91.9486 168.025 93.5292 166.482C95.1099 164.938 95.1401 162.406 93.5968 160.825L56.8136 123.152L93.6398 84.2471C95.1584 82.6427 95.0889 80.111 93.4845 78.5924ZM162.515 78.5924C164.12 77.0738 166.651 77.1433 168.17 78.7476L204.996 117.653C207.949 120.772 207.911 125.667 204.91 128.741L168.127 166.414C166.584 167.995 164.051 168.025 162.471 166.482C160.89 164.938 160.86 162.406 162.403 160.825L199.186 123.152L162.36 84.2471C160.842 82.6427 160.911 80.111 162.515 78.5924Z" fill="url(#paint0_linear_245_43)"/>
<defs>
<linearGradient id="paint0_linear_245_43" x1="36.8945" y1="45.1394" x2="221.518" y2="196.234" gradientUnits="userSpaceOnUse">
<stop stop-color="#5218FA"/>
<stop offset="1" stop-color="#00D0F4"/>
</linearGradient>
</defs>
</svg>
