<svg width="900" height="194" viewBox="0 0 900 194" fill="none" xmlns="http://www.w3.org/2000/svg">
<g clip-path="url(#clip0_188_7)">
<path d="M0 85L12.5 80.5C25 76 50 66.9999 75 66.2999C100 65.6999 125 73.2999 150 73.2999C175 73.2999 200 65.7 225 62.5C250 59.3 275 60.6999 300 59.2999C325 57.9999 350 53.9999 375 54.2999C400 54.6999 425 59.2999 450 63.2999C475 67.2999 500 70.7 525 69.5C550 68.3 575 62.6999 600 61.2999C625 59.9999 650 63 675 66.7C700 70.3 725 74.7 750 75.5C775 76.3 800 73.7 825 72C850 70.3 875 69.6999 887.5 69.2999L900 69V195H887.5C875 195 850 195 825 195C800 195 775 195 750 195C725 195 700 195 675 195C650 195 625 195 600 195C575 195 550 195 525 195C500 195 475 195 450 195C425 195 400 195 375 195C350 195 325 195 300 195C275 195 250 195 225 195C200 195 175 195 150 195C125 195 100 195 75 195C50 195 25 195 12.5 195H0V85Z" fill="#00D0F4"/>
<path d="M0 90L12.5 86.8C25 83.7 50 77.3 75 77.7C100 78 125 85 150 83.3C175 81.7 200 71.3 225 67.5C250 63.7 275 66.3 300 71.3C325 76.3 350 83.7 375 87.2C400 90.7 425 90.3 450 87.7C475 85 500 80 525 76.7C550 73.3 575 71.7 600 75.5C625 79.3 650 88.7 675 90.5C700 92.3 725 86.7 750 80.7C775 74.7 800 68.3 825 71C850 73.7 875 85.3 887.5 91.2L900 97V195H887.5C875 195 850 195 825 195C800 195 775 195 750 195C725 195 700 195 675 195C650 195 625 195 600 195C575 195 550 195 525 195C500 195 475 195 450 195C425 195 400 195 375 195C350 195 325 195 300 195C275 195 250 195 225 195C200 195 175 195 150 195C125 195 100 195 75 195C50 195 25 195 12.5 195H0V90Z" fill="#00BFFD"/>
<path d="M0 88L12.5 89.7C25 91.3 50 94.7 75 97.3C100 100 125 102 150 102.8C175 103.7 200 103.3 225 100.2C250 97 275 91 300 93C325 95 350 105 375 110.2C400 115.3 425 115.7 450 113.5C475 111.3 500 106.7 525 104.8C550 103 575 104 600 103.8C625 103.7 650 102.3 675 99.7C700 97 725 93 750 91.3C775 89.7 800 90.3 825 91C850 91.7 875 92.3 887.5 92.7L900 93V195H887.5C875 195 850 195 825 195C800 195 775 195 750 195C725 195 700 195 675 195C650 195 625 195 600 195C575 195 550 195 525 195C500 195 475 195 450 195C425 195 400 195 375 195C350 195 325 195 300 195C275 195 250 195 225 195C200 195 175 195 150 195C125 195 100 195 75 195C50 195 25 195 12.5 195H0V88Z" fill="#00ABFF"/>
<path d="M0 129L12.5 129.3C25 129.7 50 130.3 75 126.8C100 123.3 125 115.7 150 112.7C175 109.7 200 111.3 225 114.7C250 118 275 123 300 125.3C325 127.7 350 127.3 375 125.2C400 123 425 119 450 116.8C475 114.7 500 114.3 525 115.3C550 116.3 575 118.7 600 116.7C625 114.7 650 108.3 675 109.3C700 110.3 725 118.7 750 123.5C775 128.3 800 129.7 825 127.2C850 124.7 875 118.3 887.5 115.2L900 112V195H887.5C875 195 850 195 825 195C800 195 775 195 750 195C725 195 700 195 675 195C650 195 625 195 600 195C575 195 550 195 525 195C500 195 475 195 450 195C425 195 400 195 375 195C350 195 325 195 300 195C275 195 250 195 225 195C200 195 175 195 150 195C125 195 100 195 75 195C50 195 25 195 12.5 195H0V129Z" fill="#0095FF"/>
<path d="M0 147L12.5 146.2C25 145.3 50 143.7 75 142.7C100 141.7 125 141.3 150 137.5C175 133.7 200 126.3 225 126.2C250 126 275 133 300 134.2C325 135.3 350 130.7 375 128.2C400 125.7 425 125.3 450 124.5C475 123.7 500 122.3 525 124.2C550 126 575 131 600 132C625 133 650 130 675 131C700 132 725 137 750 137.7C775 138.3 800 134.7 825 134.8C850 135 875 139 887.5 141L900 143V195H887.5C875 195 850 195 825 195C800 195 775 195 750 195C725 195 700 195 675 195C650 195 625 195 600 195C575 195 550 195 525 195C500 195 475 195 450 195C425 195 400 195 375 195C350 195 325 195 300 195C275 195 250 195 225 195C200 195 175 195 150 195C125 195 100 195 75 195C50 195 25 195 12.5 195H0V147Z" fill="#0079FF"/>
<path d="M0 145L12.5 145.5C25 146 50 147 75 150C100 153 125 158 150 158C175 158 200 153 225 150.8C250 148.7 275 149.3 300 149.7C325 150 350 150 375 150.5C400 151 425 152 450 151.8C475 151.7 500 150.3 525 151.3C550 152.3 575 155.7 600 154.8C625 154 650 149 675 149.5C700 150 725 156 750 157.5C775 159 800 156 825 155.2C850 154.3 875 155.7 887.5 156.3L900 157V195H887.5C875 195 850 195 825 195C800 195 775 195 750 195C725 195 700 195 675 195C650 195 625 195 600 195C575 195 550 195 525 195C500 195 475 195 450 195C425 195 400 195 375 195C350 195 325 195 300 195C275 195 250 195 225 195C200 195 175 195 150 195C125 195 100 195 75 195C50 195 25 195 12.5 195H0V145Z" fill="#0057FF"/>
<path d="M0 173L12.5 172.8C25 172.7 50 172.3 75 173.5C100 174.7 125 177.3 150 175.5C175 173.7 200 167.3 225 164.2C250 161 275 161 300 164.3C325 167.7 350 174.3 375 177.3C400 180.3 425 179.7 450 176.3C475 173 500 167 525 165C550 163 575 165 600 164.8C625 164.7 650 162.3 675 161.8C700 161.3 725 162.7 750 163.3C775 164 800 164 825 164.5C850 165 875 166 887.5 166.5L900 167V195H887.5C875 195 850 195 825 195C800 195 775 195 750 195C725 195 700 195 675 195C650 195 625 195 600 195C575 195 550 195 525 195C500 195 475 195 450 195C425 195 400 195 375 195C350 195 325 195 300 195C275 195 250 195 225 195C200 195 175 195 150 195C125 195 100 195 75 195C50 195 25 195 12.5 195H0V173Z" fill="#5218FA"/>
</g>
<defs>
<clipPath id="clip0_188_7">
<rect width="900" height="194" fill="white"/>
</clipPath>
</defs>
</svg>
