<svg width="544" height="518" viewBox="0 0 544 518" fill="none" xmlns="http://www.w3.org/2000/svg">
<rect width="544" height="518" rx="259" fill="white"/>
<rect width="384" height="384" transform="translate(80 67)" fill="white"/>
<path fill-rule="evenodd" clip-rule="evenodd" d="M361.791 88.5916C360.909 92.5012 360.914 98.5418 361.319 104.6C361.379 105.494 361.119 106.167 361.051 106.342C360.945 106.614 360.832 106.821 360.767 106.933C360.635 107.163 360.501 107.349 360.425 107.451C360.26 107.674 360.07 107.902 359.903 108.096C359.554 108.501 359.087 109.011 358.568 109.564C357.52 110.681 356.132 112.109 354.747 113.512C353.36 114.918 351.954 116.319 350.862 117.387C350.319 117.918 349.84 118.381 349.474 118.723C349.371 118.82 349.269 118.915 349.172 119.003C347.786 121.236 347.522 122.914 347.639 124.136C347.765 125.463 348.389 126.767 349.53 128.077C351.929 130.831 355.905 132.808 358.5 133.851C360.786 134.77 363.032 136.831 363.537 139.903C364.84 147.831 363.283 156.405 360.964 163.895C358.625 171.448 355.392 178.274 352.981 182.855C351.444 185.776 348.646 186.863 346.254 187.028C343.942 187.187 341.614 186.564 339.768 185.655C338.437 185 336.67 185.196 334.458 186.34C332.329 187.441 330.621 189.015 330.12 189.505C329.893 189.726 329.679 189.913 329.522 190.048C329.101 190.41 328.782 190.962 328.733 192.078C328.68 193.28 328.973 194.834 329.584 196.611C330.801 200.152 332.902 203.52 333.672 204.687L333.675 204.692C333.917 205.059 334.541 206.005 334.72 207.314C335.063 209.825 334.006 212.35 332.958 214.284C331.81 216.4 330.168 218.694 328.292 221.015C324.529 225.673 319.459 230.889 314.448 235.718C310.868 239.169 307.273 242.465 304.129 245.278C304.103 245.326 304.075 245.374 304.046 245.421C303.586 246.175 302.915 246.722 302.156 247.034C301.604 247.522 301.071 247.991 300.562 248.438C298.662 250.102 297.074 251.466 295.96 252.415C295.403 252.89 294.964 253.261 294.663 253.514C294.512 253.641 294.396 253.739 294.317 253.805L294.227 253.88L294.203 253.9L294.197 253.905L294.195 253.907C294.194 253.907 294.194 253.908 291.633 250.835L294.194 253.908C292.497 255.322 289.975 255.093 288.56 253.396C287.146 251.699 287.375 249.176 289.072 247.762L289.073 247.761L289.078 247.757L289.098 247.741L289.181 247.671C289.255 247.61 289.365 247.517 289.51 247.395C289.8 247.15 290.228 246.789 290.773 246.325C291.622 245.602 292.756 244.629 294.099 243.46C288.288 238.381 283.896 231.297 280.655 224.548C276.579 216.063 274.04 207.505 272.759 202.555C271.483 197.628 275.082 193.849 278.495 192.609C283.975 190.619 284.571 185.489 284.63 184.366C284.641 184.171 284.657 183.907 284.69 183.622C285.24 178.844 283.906 177.006 282.945 176.193C281.722 175.16 279.887 174.752 278.147 174.699C275.906 174.631 271.834 173.568 270.76 169.392C270.034 166.571 269.992 163.291 270.158 160.433C270.328 157.508 270.74 154.698 271.093 152.677C271.765 148.834 275.037 146.486 278.347 146.17C285.375 145.498 288.379 143.137 289.698 141.495C290.908 139.988 291.102 138.582 291.13 138.297C290.944 132.68 289.477 131.033 288.883 130.59C287.524 129.581 285.382 127.986 283.684 126.108C282.132 124.39 279.978 121.378 280.718 117.684C284.504 98.7639 282.381 91.2458 280.456 88.501C278.907 86.2929 276.945 86.6416 276.628 86.7087L276.618 86.711L276.617 86.7111C276.567 86.7222 276.354 86.7688 276.241 86.7915C272.875 87.4669 270.321 89.7637 268.332 93.2913C266.322 96.8569 265.132 101.287 264.456 105.278C263.857 108.809 260.95 111.095 259.004 112.374C257.191 113.566 255.108 114.564 253.655 115.261L253.655 115.261L253.654 115.261C253.391 115.387 253.148 115.503 252.931 115.609C251.775 116.173 250.532 117.398 249.396 118.95C248.377 120.341 247.674 121.678 247.395 122.24C246.585 125.42 247.838 128.46 250.338 131.362C252.854 134.282 256.123 136.418 257.699 137.347C258.714 137.945 260.049 138.982 260.808 140.713C262.326 144.175 262.52 148.685 262.369 152.484C262.212 156.44 261.641 160.321 261.186 162.906C260.502 166.79 257.203 169.143 253.922 169.527C251.803 169.775 249.183 170.303 247.123 171.329C245.095 172.34 244.254 173.467 244.109 174.777C244.016 175.611 244.33 176.858 245.591 178.581C246.824 180.264 248.653 181.969 250.693 183.544C251.344 184.047 252 184.524 252.643 184.971C252.639 184.777 252.636 184.583 252.634 184.389C252.604 182.18 254.37 180.365 256.579 180.335C258.788 180.305 260.603 182.072 260.633 184.281C260.667 186.82 260.825 189.371 261.091 191.92C262.161 202.184 264.957 212.304 268.309 221.387C268.34 221.432 268.37 221.477 268.401 221.522C268.52 221.702 268.644 221.91 268.761 222.143C269.005 222.626 269.602 223.935 270.016 225.813C275.194 238.688 281.162 248.974 284.147 253.787C286.207 257.108 285.649 261.478 282.708 264.145C271.834 274 262.917 283.227 255.619 291.799C255.369 292.242 255.039 292.629 254.651 292.943C253.547 294.257 252.481 295.555 251.452 296.838C244.147 305.943 238.708 314.251 234.688 321.729C232.181 326.393 230.225 330.735 228.712 334.747C224.521 345.855 223.709 354.475 224.005 360.478L224.008 360.516C224.01 360.544 224.011 360.571 224.012 360.596C224.013 360.612 224.014 360.628 224.014 360.643L224.016 360.674C224.209 364.266 224.801 366.935 225.315 368.654C225.395 368.921 225.473 369.166 225.547 369.387C232.853 371.096 239.18 373.111 244.646 375.361C245.347 349.905 254.304 334.901 265.42 326.295C277.169 317.199 290.605 315.828 296.972 315.731C301.651 315.66 304.203 319.526 304.93 322.451C305.683 325.486 307.887 327.191 310.551 328.213C313.262 329.253 315.885 329.331 316.142 329.335L316.208 329.336L316.254 329.337C316.269 329.337 316.284 329.338 316.3 329.338C322.51 329.504 323.687 327.634 323.973 327.038C324.536 325.866 324.338 324.043 323.842 322.451C323.428 321.119 323.014 318.902 324.084 316.677C326.936 310.744 333.364 307.87 338.543 306.396C343.951 304.856 349.33 304.471 351.722 304.371C353.511 304.297 355.129 304.872 356.406 305.727C363.273 310.328 367.942 311.485 370.689 311.632C373.041 311.758 374.18 311.155 374.319 311.074L374.343 311.058L374.369 311.039L374.402 311.016L374.445 310.986L374.493 310.952C377.996 308.554 378.706 306.979 378.827 306.452C378.888 306.185 378.896 305.832 378.274 305.144C376.904 303.627 375.82 301.598 375.482 299.416C375.134 297.167 375.569 294.415 377.782 292.346C398.083 273.359 425.145 278.216 436.714 281.032C436.326 280.682 435.824 280.373 435.216 280.113C431.695 278.605 427.952 274.461 428.994 269.367C430.669 261.18 429.178 258.548 428.599 257.894C428.05 257.273 427.244 257.23 426.835 257.273L426.732 257.285C426.626 257.296 426.477 257.313 426.332 257.327C426.286 257.332 426.24 257.336 426.196 257.34C424.763 257.467 423.744 258.247 422.875 259.838C421.95 261.533 421.484 263.706 421.276 265.427C420.99 267.798 419.582 270.945 416.194 272.074C411.808 273.536 407.445 273.2 404.362 272.605C403.749 272.487 403.175 272.356 402.646 272.222C402.51 272.506 402.372 272.792 402.233 273.079C401.27 275.067 398.877 275.898 396.889 274.935C394.901 273.971 394.07 271.579 395.033 269.591C395.692 268.232 396.316 266.918 396.907 265.647C401.209 256.402 403.735 249.528 405.085 244.453C406.451 239.323 406.539 236.31 406.258 234.653C406.124 233.862 405.922 233.476 405.818 233.319C405.727 233.182 405.668 233.15 405.646 233.138L405.644 233.138C405.522 233.072 405.201 233.005 404.709 233.072C404.031 233.166 403.264 233.209 402.734 233.24L402.733 233.24L402.547 233.25C402.475 233.255 402.409 233.259 402.351 233.263C402.205 233.273 401.377 233.481 399.905 235.12C398.533 236.649 397.073 238.899 395.604 241.675C392.68 247.199 390.082 254.099 388.231 259.587C387.044 263.105 383.755 264.798 381.324 265.55C378.729 266.353 375.764 266.533 373.349 266.083C370.514 265.553 367.569 266.277 366.624 266.558C366.232 266.675 365.86 266.759 365.537 266.824C364.628 267.004 364.049 267.455 363.557 268.308C362.986 269.296 362.593 270.768 362.429 272.624C362.107 276.276 362.771 280.12 362.988 281.223C362.992 281.235 362.997 281.251 363.004 281.274C363.015 281.308 363.026 281.342 363.043 281.395C364.231 285.062 362.853 288.325 361.025 290.684C359.231 293 356.66 294.946 354.171 296.503C349.146 299.648 343.294 301.908 341.001 302.741C339.592 303.253 338.122 303.307 336.805 303.051C310.49 297.936 292.677 301.314 281.237 306.188C279.135 307.084 276.951 306.965 275.17 306.486C273.371 306.002 271.684 305.079 270.322 303.932C268.991 302.811 267.702 301.247 267.101 299.322C266.445 297.225 266.665 294.771 268.367 292.715C277.688 281.455 288.761 274.442 292.137 272.444C293.536 271.615 295.071 271.333 296.459 271.393C313.12 272.117 320.755 269.711 324.103 267.533C325.612 266.551 326.217 265.639 326.479 265.063C325.447 265.094 324.176 265.242 322.822 265.466C320.356 265.875 317.529 265.232 315.788 263.034C314.893 261.904 314.398 260.46 314.503 258.91C314.606 257.388 315.263 256.053 316.157 254.987C321.602 248.491 331.885 240.453 335.114 237.983C336.595 236.849 338.344 236.354 340.013 236.351C356.076 236.32 361.206 228.113 361.583 227.487C361.682 227.323 361.814 227.107 361.965 226.882C363.05 225.271 363.029 224.532 363.02 224.433C363.016 224.393 363.01 224.375 362.985 224.334C362.948 224.276 362.847 224.142 362.604 223.955C362.078 223.551 361.191 223.128 359.947 222.768C358.744 222.42 357.433 222.193 356.241 222.051C352.859 221.648 348.643 218.77 349.211 213.803C350.052 206.457 354.299 197.443 358.446 190.008C362.68 182.415 367.172 175.844 369.015 173.222C370.156 171.598 371.793 170.582 373.485 170.112C384.167 167.14 386.74 161.278 386.878 160.954L386.896 160.913L386.897 160.91C386.941 160.806 387.024 160.612 387.108 160.433C388.563 157.338 389.024 155.331 389.067 154.131C389.088 153.561 389.011 153.252 388.962 153.117C388.921 153.001 388.884 152.964 388.862 152.943C388.783 152.868 388.414 152.6 387.374 152.477C386.367 152.358 385.11 152.422 383.74 152.628C378.618 153.398 372.806 149.276 373.531 143.17C376.869 115.052 374.312 100.777 371.155 93.684C369.605 90.2023 367.946 88.5269 366.826 87.7187C366.256 87.3069 365.78 87.0867 365.455 86.9687C365.128 86.8497 364.935 86.828 364.934 86.8279C364.311 86.758 363.659 86.5721 363.054 86.2579C362.902 86.1793 362.778 86.1244 362.68 86.0863C362.622 86.1784 362.553 86.301 362.477 86.4612C362.243 86.951 362.003 87.6511 361.791 88.5916ZM248.365 287.989C248.256 288.119 248.147 288.249 248.038 288.379C247.832 288.627 247.626 288.873 247.422 289.12C247.011 288.867 246.563 288.591 246.083 288.291C243.45 286.65 239.855 284.339 236.001 281.655C228.302 276.296 220.138 269.835 216.159 264.43C216.235 264.337 216.332 264.246 216.442 264.17C218.699 262.61 221.573 260.071 223.368 256.332C225.226 252.461 225.759 247.645 223.795 242.017C222.319 237.788 219.862 234.814 216.359 233.637C213.044 232.523 209.782 233.37 207.386 234.422C205.284 235.345 203.401 236.619 201.976 237.722C201.776 237.421 201.575 237.114 201.375 236.802C198.304 232.016 195.766 226.702 195.526 222.427C195.561 222.426 195.596 222.427 195.631 222.429C198.077 222.577 202.073 222.411 205.178 219.886C208.668 217.048 209.727 212.409 208.556 206.55C207.555 201.547 205.361 197.939 201.811 196.243C198.422 194.625 194.915 195.307 192.52 196.158C192.314 196.231 192.077 196.271 191.835 196.267C191.591 196.263 191.391 196.216 191.254 196.161C191.227 196.15 191.204 196.139 191.185 196.13C191.18 196.127 191.174 196.124 191.169 196.122C191.164 196.119 191.159 196.116 191.154 196.113C190.45 192.599 189.714 187.876 189.554 182.974C189.394 178.064 189.822 173.252 191.236 169.356C191.255 169.348 191.278 169.339 191.305 169.331C191.387 169.305 191.487 169.285 191.597 169.276C195.809 168.936 205.583 167.069 208.479 156.934C209.037 154.98 209.167 152.964 208.523 151.062C207.858 149.097 206.527 147.726 205.045 146.843C202.354 145.239 198.9 145.072 196.373 145.165C196.122 145.174 195.688 145.032 195.337 144.618C194.997 144.217 195.063 143.977 195.067 143.964C196.873 138.06 199.038 129.354 198.928 121.506C198.873 117.578 198.249 113.524 196.442 110.081C194.558 106.491 191.458 103.722 186.955 102.542C186.878 102.522 186.817 102.504 186.702 102.469C186.646 102.452 186.578 102.432 186.489 102.406C184.867 101.924 179.799 100.966 175.163 105.339C170.805 109.451 167.783 117.47 167.485 132.072L167.484 132.073C167.484 132.089 167.483 132.142 167.406 132.254C167.317 132.384 167.137 132.569 166.841 132.737C166.182 133.113 165.519 133.112 165.189 132.986C160.864 131.34 154.207 130.251 149.209 135.606C146.711 138.282 146.352 141.563 146.973 144.469C147.56 147.222 149.047 149.88 150.651 152.162C153.889 156.768 158.488 161.056 161.177 163.401C161.226 163.443 161.273 163.51 161.297 163.604C161.322 163.699 161.316 163.791 161.29 163.867C159.506 168.977 156.127 180.201 156.108 192.266C156.108 192.351 155.989 192.922 155.12 193.483C154.252 194.042 153.572 193.978 153.389 193.905C150.4 192.706 146.439 191.606 142.737 192.488C140.761 192.96 138.886 193.993 137.41 195.761C135.969 197.487 135.104 199.677 134.688 202.177C133.338 210.277 138.055 216.206 142.952 219.99C147.874 223.794 153.815 226.147 157.152 227.287C157.364 227.36 157.53 227.561 157.563 227.769C158.287 232.222 160.179 241.191 164.838 252.407C163.979 252.474 163.089 252.701 162.196 253.16C159.018 254.793 157.705 258.416 157.171 262.288C156.457 267.465 158.641 271.76 161.649 275.013C164.606 278.212 168.595 280.693 172.353 282.561C176.157 284.452 179.986 285.84 182.836 286.752C184.269 287.21 185.472 287.553 186.324 287.784L186.378 287.799C196.057 299.401 208.889 311.07 225.872 321.353C224.95 323.195 224.108 324.994 223.338 326.749C211.241 317.526 198.086 314.661 191.063 313.76C190.934 313.744 190.761 313.663 190.62 313.479C190.48 313.298 190.461 313.135 190.475 313.04C192.084 301.953 190.186 295.148 186.249 291.292C182.383 287.505 177.693 287.706 176.447 287.829L176.284 287.845C176.2 287.854 176.135 287.86 176.057 287.867C171.258 288.303 168.203 291.726 166.402 294.768C164.597 297.818 163.535 301.313 162.937 303.799C160.59 302.989 158.546 301.319 156.842 299.317C155.062 297.226 153.863 295.019 153.263 293.772C155.312 279.678 154.11 270.992 151.149 265.671C147.967 259.951 143.145 258.742 140.192 258.701C139.756 258.695 139.384 258.637 138.781 258.542L138.781 258.542L138.78 258.542C138.5 258.498 138.17 258.446 137.761 258.389C133.79 257.827 131.318 260.511 130.1 262.653C129.208 264.223 128.604 266.08 128.181 267.867C124.897 264.528 121.288 262.799 117.756 262.147C112.021 261.087 107.357 263.041 106.143 263.611C105.72 263.81 105.37 264.034 105.103 264.224C101.889 266.52 99.705 269.202 98.6701 272.257C97.6294 275.33 97.9006 278.338 98.8016 280.994C100.526 286.079 104.727 290.39 107.934 293.167C107.975 293.203 108.272 293.523 108.301 294.495C108.33 295.44 108.068 296.472 107.67 297.197C104.556 302.872 105.581 309.244 106.028 311.365C106.295 312.631 106.903 313.736 107.659 314.603C112.799 320.489 118.348 322.233 123.458 321.337C128.165 320.511 131.7 317.568 133.506 315.781C133.531 315.756 133.556 315.733 133.579 315.713C135.559 316.405 137.979 317.916 140.487 319.88C143.079 321.909 145.449 324.168 147.072 325.81C147.074 325.824 147.077 325.841 147.079 325.863C147.1 326.056 147.077 326.403 146.928 326.845C145.532 330.987 146.368 334.777 147.592 337.547C148.804 340.286 150.498 342.284 151.319 343.166C151.964 343.858 152.699 344.345 153.367 344.677C157.64 346.804 161.414 347.82 164.592 347.087C168.346 346.221 169.998 343.31 170.552 340.835C170.73 340.037 171.16 339.288 171.599 338.866C171.752 338.72 171.862 338.654 171.916 338.627C195.186 343.821 206.262 350.14 211.462 354.726C214.038 356.998 215.156 358.829 215.638 359.891C215.882 360.427 215.975 360.793 216.009 360.955C216.016 360.989 216.021 361.015 216.023 361.032L216.024 361.046C216.157 363.563 216.457 365.744 216.822 367.581C215.561 367.352 214.275 367.13 212.964 366.917C212.752 366.883 212.49 366.847 212.179 366.831C210.741 366.755 200.998 366.351 191.857 369.406C187.258 370.942 182.46 373.468 179.03 377.691C175.501 382.036 173.738 387.791 174.629 395.051C174.634 395.094 174.641 395.171 174.647 395.303C174.736 397.002 175.404 403.439 180.622 409.622C182.64 412.013 185.26 414.275 188.637 416.188C188.574 416.205 188.512 416.222 188.449 416.238C185.58 417.009 182.705 418.096 180.558 419.742C178.274 421.493 176.409 424.263 177.043 427.908L177.054 427.969C177.116 428.329 177.255 429.143 177.585 429.941C179.032 433.443 183.68 436.91 195.9 438.193C208.381 439.503 230.122 438.711 268.309 432.125C284.756 439.491 296.356 441.062 304.357 440.314C312.484 439.554 316.655 436.419 318.153 434.98C318.722 434.433 319.089 433.853 319.314 433.45C328.003 417.869 326.713 406.024 321.351 397.586C316.248 389.557 307.967 385.452 304.186 383.89C301.393 382.737 298.434 383.458 296.394 385.175L292.917 388.103C292.902 388.104 292.866 388.104 292.811 388.091C292.637 388.048 292.456 387.917 292.357 387.731C289.299 381.982 285.49 378.427 281.16 376.773C276.859 375.131 272.634 375.59 269.154 376.712C265.696 377.828 262.745 379.667 260.717 381.153C259.885 381.761 259.184 382.329 258.64 382.794C256.801 381.527 254.793 380.298 252.603 379.114C252.486 353.3 261.019 339.82 270.317 332.621C279.964 325.153 291.194 323.848 296.876 323.734C296.908 323.775 296.945 323.831 296.984 323.903C297.055 324.034 297.12 324.197 297.166 324.38C298.782 330.888 303.649 334.134 307.686 335.683C311.675 337.213 315.383 337.324 316.018 337.334C316.058 337.334 316.073 337.335 316.086 337.335C323.843 337.543 328.953 335.149 331.185 330.502C333.14 326.43 332.089 322.029 331.481 320.074C331.457 319.998 331.44 319.933 331.428 319.88C332.795 317.361 336.134 315.399 340.733 314.09C345.186 312.822 349.766 312.465 351.947 312.369L351.953 312.373C359.676 317.547 365.715 319.377 370.261 319.621C374.857 319.867 377.632 318.474 378.729 317.749C378.816 317.691 378.891 317.639 378.935 317.608L378.978 317.578L379.014 317.553C383.159 314.714 385.84 311.663 386.625 308.239C387.469 304.555 385.881 301.631 384.211 299.782C383.739 299.259 383.455 298.629 383.388 298.192C383.38 298.143 383.376 298.102 383.374 298.07C401.936 280.849 427.644 286.919 437.398 289.457C439.344 289.963 441.504 289.689 443.229 288.437C445.043 287.12 446.02 284.963 445.793 282.62C445.253 277.037 441.545 274.119 438.364 272.758C437.854 272.54 437.37 272.134 437.077 271.688C436.792 271.255 436.822 271.016 436.831 270.971C438.66 262.033 437.727 256.14 434.593 252.595C431.429 249.016 427.233 249.186 425.988 249.318C425.882 249.33 425.804 249.338 425.741 249.345C425.682 249.352 425.636 249.357 425.589 249.362C425.558 249.365 425.527 249.368 425.493 249.371C420.569 249.806 417.55 252.9 415.855 256.003C414.216 259.003 413.59 262.345 413.334 264.467C413.328 264.514 413.32 264.557 413.311 264.596C410.902 265.309 408.303 265.195 406.082 264.789C409.389 257.308 411.537 251.318 412.816 246.511C414.314 240.884 414.7 236.594 414.146 233.319C413.563 229.87 411.886 227.4 409.409 226.079C407.159 224.879 404.877 224.974 403.618 225.147C403.28 225.194 402.99 225.21 402.566 225.234C402.354 225.247 402.107 225.261 401.803 225.282C398.489 225.509 395.851 227.661 393.953 229.775C391.955 232 390.14 234.896 388.534 237.932C385.311 244.022 382.554 251.391 380.659 257.005C380.66 257.003 380.66 257.001 380.66 257C380.66 256.999 380.66 256.999 380.66 256.998C380.659 256.998 380.655 257.003 380.647 257.012L380.646 257.013C380.576 257.095 380.214 257.519 378.959 257.907C377.527 258.351 375.878 258.416 374.818 258.218C370.085 257.335 365.653 258.501 364.341 258.891C364.315 258.899 364.286 258.907 364.253 258.915C364.181 258.934 364.092 258.954 363.98 258.976C360.488 259.669 358.099 261.763 356.629 264.307C355.238 266.716 354.674 269.493 354.46 271.921C354.031 276.787 354.904 281.59 355.151 282.828C355.237 283.263 355.365 283.654 355.42 283.824L355.432 283.861C355.503 284.08 355.617 284.602 354.701 285.784C353.751 287.01 352.098 288.363 349.928 289.721C345.68 292.379 340.533 294.396 338.335 295.198L338.331 295.198C310.638 289.815 291.18 293.256 278.101 298.829C278.102 298.829 278.101 298.829 278.101 298.829C278.086 298.834 277.829 298.917 277.248 298.761C276.659 298.602 276.007 298.261 275.475 297.812C275.258 297.63 275.089 297.452 274.964 297.296C283.26 287.465 293.026 281.224 296.115 279.385C313.281 280.131 322.99 277.802 328.466 274.239C331.289 272.402 332.984 270.235 333.891 268.079C334.783 265.96 334.813 264.097 334.7 262.964C334.7 262.962 334.665 262.546 334.625 262.266C334.575 261.911 334.475 261.367 334.225 260.767C333.46 258.928 331.919 258.053 330.838 257.652C329.748 257.247 328.593 257.113 327.623 257.072C326.798 257.038 325.924 257.065 325.048 257.131C330.087 252.052 337.14 246.506 339.947 244.358C339.962 244.355 339.989 244.351 340.028 244.351C359.525 244.313 366.976 234.042 368.439 231.61C368.515 231.484 368.564 231.405 368.601 231.349C370.256 228.892 371.238 226.296 370.982 223.662C370.716 220.908 369.183 218.921 367.478 217.611C364.39 215.239 359.922 214.436 357.238 214.113C358.048 208.553 361.446 201.054 365.433 193.905C369.459 186.684 373.758 180.389 375.538 177.854C375.554 177.845 375.583 177.832 375.629 177.819C389.051 174.085 393.317 166.244 394.234 164.1L394.272 164.011C394.294 163.959 394.309 163.925 394.32 163.898C394.331 163.872 394.339 163.854 394.348 163.837C396.027 160.265 396.965 157.139 397.062 154.418C397.164 151.574 396.335 149.021 394.391 147.161C392.57 145.42 390.259 144.763 388.313 144.533C386.333 144.299 384.3 144.454 382.55 144.717C382.299 144.754 381.955 144.669 381.686 144.435C381.565 144.33 381.509 144.237 381.488 144.187C381.472 144.15 381.473 144.135 381.475 144.113C384.875 115.473 382.491 99.4798 378.463 90.4308C374.531 81.5957 369.032 79.4111 366.315 78.9473C365.046 78.3485 363.656 77.9624 362.193 78.0029C360.493 78.0499 358.988 78.6668 357.773 79.6689C355.561 81.4915 354.542 84.3747 353.987 86.8303C352.927 91.5287 352.921 97.8323 353.239 103.546C353.088 103.71 352.92 103.892 352.734 104.09C351.752 105.136 350.419 106.51 349.054 107.892C347.692 109.272 346.32 110.639 345.269 111.667C344.741 112.184 344.307 112.601 344.001 112.888C343.898 112.985 343.819 113.058 343.762 113.11C343.633 113.203 343.496 113.314 343.359 113.443C343.069 113.717 342.793 114.059 342.573 114.471C340.304 118.004 339.352 121.51 339.675 124.895C340.002 128.324 341.589 131.14 343.497 133.331C347.198 137.58 352.672 140.131 355.517 141.274C355.576 141.298 355.625 141.325 355.662 141.351L355.668 141.355C356.635 147.479 355.465 154.607 353.322 161.529C351.199 168.383 348.236 174.681 345.964 179.01C345.908 179.024 345.823 179.039 345.703 179.047C345.095 179.089 344.175 178.908 343.301 178.478C338.577 176.153 333.854 177.645 330.782 179.235C327.626 180.867 325.257 183.072 324.529 183.783C324.489 183.822 324.43 183.875 324.304 183.984C321.787 186.15 320.859 189.034 320.741 191.728C320.626 194.336 321.246 196.966 322.019 199.212C323.428 203.31 325.66 207.021 326.714 208.662C326.624 208.979 326.417 209.562 325.925 210.47C325.108 211.977 323.803 213.842 322.07 215.987C318.617 220.261 313.826 225.208 308.897 229.958C305.904 232.843 302.892 235.625 300.15 238.099C295.23 234.113 291.13 227.879 287.866 221.084C284.126 213.299 281.747 205.342 280.526 200.637L280.535 200.623C280.576 200.56 280.655 200.468 280.781 200.371C280.907 200.274 281.06 200.189 281.227 200.128C291.563 196.374 292.525 186.557 292.619 184.791C292.626 184.655 292.633 184.581 292.638 184.537C293.407 177.85 291.632 173.062 288.11 170.084C284.849 167.327 280.828 166.777 278.391 166.703C278.379 166.703 278.367 166.702 278.355 166.701C278.069 165.148 278.015 163.126 278.144 160.898C278.288 158.439 278.635 156.008 278.953 154.174C278.957 154.172 278.962 154.169 278.967 154.167C279.005 154.152 279.052 154.139 279.108 154.133C287.807 153.302 292.991 150.171 295.936 146.503C298.802 142.933 299.099 139.407 299.13 138.524C299.136 138.352 299.131 138.211 299.13 138.156L299.13 138.155C298.927 131.433 297.127 126.751 293.656 124.171C292.222 123.105 290.709 121.949 289.619 120.743C288.724 119.753 288.601 119.267 288.579 119.182L288.578 119.176C292.398 100.039 290.968 89.5574 287.005 83.9075C282.661 77.7135 276.39 78.5813 274.968 78.8829C274.851 78.9078 274.803 78.9186 274.769 78.9261C274.738 78.9332 274.719 78.9374 274.667 78.9478C268.249 80.2357 264.043 84.6098 261.364 89.3617C258.706 94.0756 257.316 99.533 256.568 103.94C256.569 103.937 256.569 103.935 256.569 103.934C256.568 103.934 256.568 103.935 256.567 103.936C256.566 103.937 256.565 103.939 256.564 103.941C256.562 103.944 256.561 103.947 256.559 103.95C256.5 104.054 256.152 104.676 254.61 105.689C253.291 106.556 251.789 107.279 250.322 107.985C250.02 108.13 249.72 108.275 249.422 108.42C246.537 109.828 244.362 112.284 242.941 114.224C241.47 116.233 240.504 118.116 240.152 118.841C239.953 119.25 239.803 119.662 239.692 120.076C237.854 126.949 240.934 132.703 244.277 136.584C247.608 140.449 251.711 143.101 253.6 144.217C254.254 145.942 254.511 148.754 254.376 152.167C254.24 155.591 253.74 159.051 253.318 161.458C253.295 161.476 253.257 161.502 253.201 161.526C253.141 161.552 253.07 161.572 252.993 161.581C250.521 161.87 246.833 162.536 243.556 164.169C240.248 165.816 236.722 168.812 236.158 173.893C235.75 177.559 237.309 180.812 239.137 183.308C240.994 185.843 243.473 188.076 245.803 189.876C248.161 191.697 250.527 193.196 252.288 194.234C252.681 194.466 253.046 194.676 253.377 194.863C254.321 202.39 256.087 209.782 258.271 216.737C257.227 216.742 256.248 216.834 255.395 216.956C255.119 216.996 254.826 216.944 254.601 216.831C254.387 216.725 254.326 216.616 254.311 216.579C249.784 206.1 245.1 200.608 240.827 197.893C236.399 195.08 232.792 195.488 231.22 195.93C231.021 195.985 230.815 196.054 230.728 196.083L230.727 196.083L230.698 196.093C228.57 196.792 226.871 198.116 225.768 199.98C224.717 201.756 224.37 203.744 224.354 205.597C224.321 209.221 225.55 213.371 227.113 217.276C230.29 225.21 235.601 233.911 238.983 239.119C238.994 239.135 239.006 239.156 239.011 239.213C239.017 239.281 239.012 239.406 238.955 239.577C238.829 239.955 238.542 240.294 238.23 240.463C236.258 241.534 233.765 243.252 232.296 245.86C230.625 248.828 230.615 252.343 232.685 255.863C235.116 259.995 238.703 261.903 242.184 262.535C242.661 262.621 243.134 262.684 243.602 262.726C245.952 262.938 248.146 262.634 249.826 262.253C250.029 263.629 250.136 265.453 250.133 267.642C250.128 270.684 249.915 274.09 249.624 277.315C249.334 280.53 248.973 283.512 248.683 285.693C248.56 286.621 248.45 287.4 248.365 287.989ZM257.636 277.535C259.289 275.766 261.005 273.975 262.786 272.162C264.909 260.896 261.092 251.182 258.752 246.599C257.088 243.341 257.7 239.52 259.773 236.866C262.47 233.414 262.65 230.21 262.328 228.13C261.979 227.252 261.634 226.364 261.294 225.464C260.988 225.221 260.574 225.03 259.993 224.9C259.008 224.678 257.782 224.697 256.526 224.876C252.898 225.394 248.671 223.698 246.967 219.752C242.775 210.049 238.933 206.168 236.537 204.646C234.735 203.501 233.605 203.594 233.383 203.632L233.382 203.632C233.356 203.636 233.343 203.64 233.343 203.641C233.343 203.641 233.355 203.639 233.382 203.632L233.353 203.641L233.29 203.662L233.197 203.693C232.792 203.826 232.707 203.961 232.653 204.054C232.546 204.234 232.362 204.7 232.353 205.668C232.335 207.688 233.079 210.653 234.54 214.302C234.896 215.19 235.283 216.094 235.696 217.005C238.613 223.448 242.773 230.267 245.692 234.761C248.807 239.556 246.064 245.312 242.049 247.493C241.689 247.689 241.362 247.885 241.069 248.079C240.142 248.693 239.547 249.288 239.267 249.786C239.12 250.047 239.079 250.243 239.085 250.437C239.09 250.644 239.157 251.086 239.581 251.807C240.306 253.039 241.177 253.775 242.129 254.21C242.606 254.428 243.103 254.571 243.611 254.663C245.299 254.969 247.156 254.703 248.647 254.306C249.939 253.962 251.558 253.841 253.146 254.354C254.883 254.915 256.534 256.255 257.183 258.466C257.934 261.023 258.138 264.386 258.133 267.655C258.128 270.856 257.916 274.324 257.636 277.535ZM267.454 239.834C267.047 240.482 266.59 241.135 266.078 241.791C265.737 242.226 265.758 242.729 265.877 242.961C267.905 246.933 271.023 254.442 271.375 263.737C273.297 261.917 275.283 260.077 277.335 258.217C277.354 258.2 277.37 258.177 277.376 258.133C277.382 258.087 277.373 258.043 277.348 258.003C275.187 254.519 271.412 248.109 267.454 239.834ZM222.038 376.791C221.861 376.764 221.686 376.725 221.514 376.675C218.443 376.004 215.176 375.382 211.699 374.817C210.29 374.746 201.935 374.473 194.393 376.993C190.598 378.261 187.361 380.123 185.24 382.734C183.219 385.223 181.916 388.749 182.569 394.078C182.607 394.384 182.625 394.669 182.637 394.887C182.677 395.664 183.079 400.129 186.736 404.462C190.054 408.394 196.525 412.776 209.434 413.696C214.952 413.519 219.574 413.648 221.234 413.804C221.426 413.822 221.798 413.859 222.156 413.94C222.256 413.963 222.459 414.011 222.7 414.1L222.709 414.103C222.81 414.139 223.621 414.422 224.311 415.187C224.756 415.68 225.424 416.692 225.336 418.12C225.25 419.51 224.498 420.404 224.067 420.805C223.367 421.458 222.605 421.68 222.495 421.713L222.485 421.716C221.929 421.886 221.345 421.916 221.222 421.923L221.205 421.924C220.936 421.94 220.612 421.951 220.25 421.957C218.805 421.984 216.155 421.957 212.014 421.833C211.086 421.805 210.181 421.762 209.297 421.704C209.158 421.709 209.017 421.714 208.876 421.72C208.656 421.728 208.434 421.736 208.211 421.746C202.18 421.996 195.474 422.636 190.524 423.965C188.005 424.641 186.33 425.397 185.424 426.092C185.121 426.324 184.984 426.49 184.93 426.567C184.945 426.652 184.957 426.718 184.969 426.78L184.977 426.823C185.38 427.267 187.669 429.285 196.735 430.236C208.107 431.43 228.957 430.786 266.814 424.265C268.295 420.301 270.674 411.025 265.536 401.511C260.841 392.817 249.273 382.841 222.038 376.791ZM321.358 257.586C321.358 257.585 321.362 257.585 321.369 257.585C321.374 257.586 321.381 257.586 321.389 257.588C321.377 257.588 321.369 257.588 321.364 257.587C321.36 257.587 321.358 257.586 321.358 257.586ZM342.162 115.64C342.167 115.616 342.174 115.579 342.184 115.532L342.174 115.58L342.162 115.64ZM242.395 295.419C242.281 295.348 242.164 295.275 242.045 295.201L241.851 295.08C239.137 293.389 235.424 291.002 231.43 288.221C223.614 282.78 214.124 275.43 209.347 268.659C207.862 266.555 207.774 264.15 208.418 262.171C209.038 260.268 210.336 258.666 211.894 257.589C213.502 256.477 215.179 254.905 216.156 252.87C217.07 250.966 217.53 248.346 216.242 244.653C215.275 241.882 214.213 241.355 213.81 241.22C213.22 241.022 212.191 241.05 210.602 241.747C209.239 242.346 207.88 243.259 206.746 244.147C206.823 244.239 206.896 244.326 206.964 244.407C207.018 244.472 207.069 244.533 207.118 244.591C207.286 244.79 207.417 244.942 207.503 245.04C207.545 245.09 207.577 245.126 207.597 245.148L207.617 245.171L207.618 245.172C209.089 246.821 208.944 249.35 207.296 250.82C205.647 252.29 203.118 252.146 201.648 250.497L204.633 247.835C201.648 250.497 201.647 250.497 201.647 250.496L201.645 250.494L201.642 250.49L201.63 250.477L201.594 250.436C201.563 250.401 201.52 250.352 201.465 250.289C201.356 250.164 201.201 249.984 201.007 249.754C200.619 249.294 200.072 248.633 199.42 247.807C198.118 246.16 196.381 243.833 194.641 241.122C191.304 235.92 187.407 228.472 187.51 221.503C187.549 218.871 189.001 216.916 190.733 215.795C192.374 214.733 194.332 214.336 196.114 214.444C198.045 214.561 199.442 214.24 200.13 213.68C200.432 213.434 201.565 212.39 200.711 208.119C199.979 204.46 198.772 203.658 198.363 203.462C197.791 203.189 196.778 203.135 195.2 203.696C192.961 204.492 190.44 204.459 188.262 203.58C186.021 202.676 183.927 200.752 183.33 197.786C182.568 194.001 181.739 188.77 181.558 183.235C181.379 177.748 181.825 171.673 183.818 166.351C185.103 162.918 188.391 161.508 190.954 161.302C194.67 161.002 199.396 159.606 200.787 154.736C200.944 154.186 200.96 153.867 200.953 153.717L200.949 153.715C200.734 153.587 200.269 153.402 199.451 153.278C198.657 153.158 197.71 153.121 196.667 153.16C193.627 153.271 190.94 151.804 189.234 149.791C187.517 147.765 186.457 144.761 187.417 141.624C189.162 135.921 191.021 128.185 190.929 121.618C190.883 118.338 190.351 115.692 189.358 113.799C188.442 112.053 187.099 110.85 184.927 110.281C184.697 110.221 184.447 110.145 184.297 110.1L184.297 110.1L184.297 110.1L184.213 110.075C183.893 109.98 182.32 109.585 180.654 111.158C178.71 112.992 175.769 118.217 175.483 132.235C175.411 135.757 173.178 138.335 170.801 139.689C168.435 141.037 165.275 141.579 162.344 140.463C158.973 139.18 156.632 139.377 155.057 141.064C154.791 141.35 154.569 141.733 154.796 142.799C155.057 144.02 155.848 145.644 157.195 147.561C159.86 151.352 163.862 155.128 166.435 157.371C169.038 159.64 169.968 163.281 168.843 166.504C167.175 171.279 164.125 181.521 164.108 192.279C164.103 195.885 161.831 198.674 159.455 200.206C157.076 201.74 153.655 202.63 150.412 201.33C147.795 200.281 145.79 199.985 144.593 200.27C144.12 200.383 143.813 200.575 143.552 200.887C143.256 201.242 142.83 201.987 142.579 203.492C141.94 207.325 143.934 210.638 147.843 213.66C151.727 216.661 156.686 218.674 159.737 219.717C162.732 220.739 164.95 223.349 165.46 226.486C166.328 231.83 169.188 245.09 177.757 260.932C181.331 267.539 185.898 274.595 191.728 281.714C200.88 292.891 213.169 304.255 229.671 314.3C233.076 308.397 237.265 302.1 242.395 295.419ZM170.889 265.049C170.834 264.981 170.767 264.899 170.688 264.805C170.422 264.486 170.036 264.04 169.568 263.546C168.585 262.508 167.429 261.457 166.381 260.829C166.147 260.689 165.96 260.593 165.815 260.528C165.616 260.944 165.316 261.786 165.096 263.381C164.81 265.455 165.563 267.462 167.523 269.583C169.535 271.759 172.547 273.724 175.913 275.397C176.504 275.691 177.098 275.972 177.69 276.24C175.118 272.425 172.864 268.676 170.889 265.049ZM165.407 260.393C165.408 260.393 165.409 260.393 165.41 260.393C165.415 260.393 165.424 260.394 165.437 260.396C165.417 260.396 165.406 260.394 165.406 260.393C165.405 260.393 165.406 260.393 165.407 260.393ZM190.045 321.695C185.354 321.093 181.864 316.674 182.558 311.891C184.016 301.84 181.904 298.235 180.651 297.007C179.326 295.709 177.643 295.75 177.23 295.79L177.13 295.8C177.027 295.811 176.897 295.824 176.779 295.835C175.773 295.926 174.57 296.674 173.287 298.843C172.045 300.94 171.203 303.612 170.685 305.795C169.924 309.007 166.575 313.055 161.622 311.755C156.807 310.491 153.214 307.397 150.75 304.502C148.269 301.588 146.692 298.595 145.952 297.027C145.25 295.542 145.147 293.981 145.34 292.662C147.315 279.117 145.834 272.573 144.158 269.56C142.7 266.94 140.925 266.712 140.08 266.7C139.058 266.686 137.934 266.512 137.183 266.394C137.145 266.452 137.103 266.522 137.056 266.606C136.515 267.557 136.023 269.17 135.655 271.218C135.301 273.183 135.118 275.218 135.025 276.792C134.983 277.501 134.961 278.103 134.949 278.545C135.274 279.322 135.59 280.131 135.895 280.974C136.646 283.052 135.571 285.345 133.494 286.096C131.416 286.848 129.123 285.773 128.372 283.695C128.016 282.712 127.65 281.799 127.275 280.95C123.655 272.751 119.306 270.568 116.303 270.013C113.163 269.433 110.467 270.443 109.667 270.797C107.509 272.357 106.609 273.755 106.247 274.824C105.886 275.889 105.914 277.056 106.378 278.424C107.383 281.389 110.18 284.53 113.171 287.12C115.468 289.109 116.228 291.922 116.298 294.254C116.369 296.614 115.773 299.059 114.683 301.045C113.098 303.935 113.451 307.631 113.809 309.481C117.36 313.482 120.181 313.789 122.075 313.457C124.392 313.051 126.493 311.466 127.879 310.095C129.307 308.681 132.063 306.916 135.377 307.89C138.929 308.934 142.504 311.299 145.419 313.581C148.414 315.926 151.077 318.478 152.831 320.256C155.654 323.118 155.32 326.996 154.509 329.401C153.945 331.075 154.211 332.733 154.909 334.312C155.564 335.793 156.505 336.971 157.043 337.57C160.523 339.287 162.161 339.373 162.683 339.31C162.702 339.256 162.724 339.183 162.745 339.088C163.228 336.93 164.362 334.724 166.06 333.094C167.797 331.428 170.459 330.106 173.602 330.807C197.528 336.141 210.08 342.86 216.709 348.687C217.363 344.451 218.49 339.73 220.281 334.541C209.281 325.372 196.714 322.551 190.045 321.695ZM137.386 266.121C137.386 266.123 137.375 266.136 137.353 266.154C137.375 266.129 137.386 266.12 137.386 266.121ZM265.006 387.934C265.146 387.827 265.292 387.718 265.443 387.607C267.087 386.403 269.261 385.084 271.611 384.326C273.938 383.575 276.203 383.443 278.306 384.247C280.38 385.039 282.889 386.966 285.294 391.487C287.584 395.794 293.677 397.922 298.069 394.223L301.417 391.404C304.782 392.832 310.939 396.119 314.599 401.877C318.089 407.37 319.844 415.97 312.425 429.376C311.71 429.98 309.113 431.834 303.612 432.349C297.789 432.893 288.523 431.953 274.635 426.148C276.473 420.771 278.92 409.457 272.575 397.709C270.768 394.363 268.298 391.073 265.006 387.934ZM220.747 413.937C220.796 413.931 220.824 413.929 220.826 413.929C220.828 413.93 220.804 413.933 220.747 413.937ZM250.878 262.008C250.878 262.008 250.876 262.008 250.871 262.008C250.876 262.007 250.878 262.008 250.878 262.008Z" fill="url(#paint0_linear_273_46)"/>
<defs>
<linearGradient id="paint0_linear_273_46" x1="98.1332" y1="77.8349" x2="446.133" y2="440.835" gradientUnits="userSpaceOnUse">
<stop stop-color="#5218FA"/>
<stop offset="1" stop-color="#00D0F4"/>
</linearGradient>
</defs>
</svg>
