<svg width="256" height="244" viewBox="0 0 256 244" fill="none" xmlns="http://www.w3.org/2000/svg">
<rect width="256" height="244" rx="122" fill="white"/>
<path fill-rule="evenodd" clip-rule="evenodd" d="M78.6782 42.2331C78.1796 40.0809 76.0308 38.7405 73.8787 39.239C71.7265 39.7376 70.386 41.8864 70.8846 44.0386L77.0572 70.6831C77.5558 72.8353 79.7046 74.1757 81.8568 73.6772C84.0089 73.1786 85.3494 71.0297 84.8508 68.8776L78.6782 42.2331ZM111.952 61.697C113.299 63.448 112.971 65.9594 111.22 67.3063L98.2202 77.3063C96.4692 78.6532 93.9578 78.3257 92.6109 76.5746C91.264 74.8236 91.5915 72.3122 93.3426 70.9653L106.343 60.9653C108.094 59.6184 110.605 59.9459 111.952 61.697ZM91.7435 89.6652L125.939 172.001L132.199 148.483C133.198 144.728 137.912 143.498 140.618 146.286L188.603 195.726L195.878 189.324L147.09 138.781C144.419 136.013 145.743 131.391 149.475 130.458L172.554 124.686L91.7435 89.6652ZM81.5085 85.879C79.784 81.7268 83.989 77.5857 88.1143 79.3735L183.85 120.862C188.235 122.762 187.711 129.141 183.075 130.301L156.451 136.959L203.816 186.029C205.797 188.081 205.663 191.371 203.521 193.255L191.742 203.619C189.74 205.38 186.709 205.261 184.852 203.347L138.567 155.659L131.394 182.609C130.165 187.228 123.778 187.655 121.945 183.241L81.5085 85.879ZM51.8123 77.6397C52.0863 75.4476 54.0855 73.8927 56.2776 74.1667L72.2776 76.1667C74.4697 76.4407 76.0246 78.4399 75.7505 80.632C75.4765 82.8241 73.4774 84.379 71.2853 84.1049L55.2853 82.1049C53.0932 81.8309 51.5383 79.8318 51.8123 77.6397ZM76.0394 93.3776C77.3769 91.6194 77.0358 89.1098 75.2776 87.7723C73.5193 86.4348 71.0097 86.7758 69.6722 88.534L51.5979 112.294C50.2604 114.052 50.6015 116.562 52.3597 117.899C54.1179 119.237 56.6275 118.896 57.965 117.137L76.0394 93.3776Z" fill="url(#paint0_linear_277_27)"/>
<defs>
<linearGradient id="paint0_linear_277_27" x1="50.7817" y1="37.7889" x2="204.788" y2="205.148" gradientUnits="userSpaceOnUse">
<stop stop-color="#5218FA"/>
<stop offset="1" stop-color="#00D0F4"/>
</linearGradient>
</defs>
</svg>
