<svg width="544" height="518" viewBox="0 0 544 518" fill="none" xmlns="http://www.w3.org/2000/svg">
<rect width="544" height="518" rx="259" fill="white"/>
<rect width="462" height="462.421" transform="translate(41 27.7896)" fill="white"/>
<path d="M243 426.716C228.763 423.073 218.733 416.594 223.224 405.178C223.396 404.74 223.5 404.269 223.5 403.798V403.798C223.5 401.45 221.224 399.849 219.086 400.819C208.015 405.838 180.669 421.547 190.923 450.794C190.973 450.935 191.011 451.063 191.055 451.206C191.871 453.862 202.904 482.861 294.936 480.014C294.977 480.013 294.975 480.012 295.016 480.012C296.349 480.008 379.569 479.53 359.597 419.8C359.535 419.616 359.457 419.427 359.365 419.256C358.232 417.136 349.988 402.364 336.759 395.25C333.657 393.582 330.644 397.255 331.433 400.688C333.593 410.094 331.953 424.539 304.973 430.339M243 426.716C243 426.716 185.056 368.075 162.324 160.012M243 426.716C244.459 427.09 245.963 427.433 247.5 427.749M183 157.012C173.977 148.381 166.186 153.293 163.248 155.81C162.407 156.53 162.066 157.637 162.186 158.737C162.232 159.163 162.278 159.587 162.324 160.012M183 157.012C183 157.012 180 163.012 162.324 160.012M183 157.012C183 157.012 175.5 284.512 247.5 427.749M183 157.012C183 157.012 183 127.449 185.329 114.512M247.5 427.749C250.564 428.38 253.76 428.9 257 429.33M210.5 111.512C198.654 98.7877 188.732 108.395 186.479 110.939C186.151 111.31 185.927 111.755 185.807 112.236C185.638 112.918 185.478 113.681 185.329 114.512M210.5 111.512C210.5 111.512 207 123.512 185.329 114.512M210.5 111.512C210.5 111.512 209.228 171.829 215.227 232.012M239 333.512C226.289 311.268 219.18 271.669 215.227 232.012M257 429.33C257 429.33 234.938 383.913 238.876 266.512M257 429.33C260.153 429.747 263.346 430.078 266.5 430.339M257 263.012C257 263.012 257 270.512 238.876 266.512M257 263.012C251.521 255.514 246.375 256.665 243 258.982M257 263.012C257 263.012 257.071 266.317 257.216 272.012M238.876 266.512C238.902 265.718 238.93 264.922 238.959 264.121C238.985 263.395 239.207 262.688 239.663 262.123C240.335 261.289 241.49 260.019 243 258.982M266.5 430.339C265.884 427.653 265.299 423.974 264.745 419.512M266.5 430.339C271.922 430.787 277.227 431.028 282 431.145M243 258.982C243 258.982 234.924 212.932 235.905 186.063M260 180.512C260 180.512 263 187.512 235.905 186.063M260 180.512C257.034 179.203 254.373 178.458 252 178.119M260 180.512L259.831 186.063M235.905 186.063C235.918 185.723 235.931 185.387 235.947 185.053C235.978 184.37 236.19 183.706 236.635 183.187C237.227 182.497 238.24 181.475 239.715 180.512M257.216 272.012L259.831 186.063M257.216 272.012C257.92 299.747 260.359 384.165 264.745 419.512M215.227 232.012C215.227 232.012 210.76 144.857 219.583 98.0117M243 98.0117C237.323 86.6587 226.057 90.7594 222 92.7159C221.022 93.1878 220.365 94.1104 220.144 95.1741C219.951 96.1022 219.764 97.0484 219.583 98.0117M243 98.0117C243 98.0117 238.876 106.012 219.583 98.0117M243 98.0117C243 98.0117 235.905 150.512 239.715 180.512M239.715 180.512C242.309 178.818 246.332 177.309 252 178.119M252 178.119C252 178.119 256.795 100.336 248.626 71.0118M272 67.5117C262.242 52.0618 252.154 61.7382 248.724 65.8936C247.912 66.8779 247.775 68.2152 248.158 69.4325C248.319 69.9417 248.474 70.4684 248.626 71.0118M272 67.5117C272 67.5117 272 75.5118 248.626 71.0118M272 67.5117C272 67.5117 279 89.0118 276.5 149.012M259.831 186.063C259.831 186.063 253.471 148.03 270.936 148.913C271.623 148.948 272.338 148.871 273.016 148.758C275.341 148.369 281.366 148.427 288 157.012M288 157.012C288 157.012 284 253.012 276.5 331.012M288 157.012C288 157.012 281.5 114.512 298.5 114.512C298.5 114.512 298.5 114.512 298.5 114.512C298.5 114.512 303.991 114.512 308.845 121.078C309.287 121.676 309.513 122.404 309.536 123.147C309.58 124.555 309.657 127.238 309.745 131.012M304.5 309.012C311.489 239.121 310.365 157.736 309.745 131.012M264.745 419.512C264.745 419.512 259.154 325.339 275.841 331.386C277.839 332.11 280.636 333.837 281.341 335.842C283.197 341.117 285.189 357.134 283.3 404.512M282 431.145C282.556 421.317 282.983 412.472 283.3 404.512M282 431.145C288.563 431.305 294.122 431.233 297.605 431.145M283.3 404.512C283.3 404.512 290.091 308.3 307.888 308.715C308.934 308.74 310.076 308.671 311.103 308.87C311.263 308.901 311.43 308.947 311.603 309.012M297.605 431.145C299.476 431.097 300.748 431.045 301.255 431.023C301.419 431.016 301.581 430.998 301.743 430.969C302.858 430.773 303.934 430.562 304.973 430.339M297.605 431.145C302.781 410.89 306.653 393.974 309.5 379.848M311.603 309.012C315.294 310.394 321.472 320.439 309.5 379.848M311.603 309.012C311.603 309.012 324.925 251.934 336.5 197.711M309.5 379.848C320.344 367.674 330.286 344.678 339.103 317.012M339.103 317.012C364.241 238.132 380.229 121.288 381.862 109.057C381.959 108.327 381.832 107.626 381.517 106.96C371.211 85.1053 358.405 96.4145 354.318 100.933C353.447 101.895 353.218 103.237 353.245 104.534C353.466 114.999 345.513 155.49 336.5 197.711M339.103 317.012C339.103 317.012 344.133 300.238 351.823 300.361C352.596 300.374 353.375 300.363 354.141 300.252C359.802 299.431 381.638 302.609 304.973 430.339M309.745 131.012C309.745 131.012 311.347 61.1599 310.088 46.3854C309.961 44.8935 310.418 43.3497 311.614 42.449C315.881 39.2361 326.727 33.0659 336.5 44.0118M336.5 44.0118C336.5 44.0118 342.5 114.512 336.5 197.711M336.5 44.0118C336.5 44.0118 337.172 53.5118 309.5 48.0118" stroke="url(#paint0_linear_273_52)" stroke-width="8"/>
<defs>
<linearGradient id="paint0_linear_273_52" x1="162" y1="37.7896" x2="382" y2="479.79" gradientUnits="userSpaceOnUse">
<stop stop-color="#5218FA"/>
<stop offset="1" stop-color="#00D0F4"/>
</linearGradient>
</defs>
</svg>
