<svg width="256" height="244" viewBox="0 0 256 244" fill="none" xmlns="http://www.w3.org/2000/svg">
<rect width="256" height="244" rx="122" fill="white"/>
<path fill-rule="evenodd" clip-rule="evenodd" d="M141.281 66.9362C144.614 61.3057 153.179 63.0279 154.077 69.5093L165.824 154.254C166.715 160.683 159.146 164.768 154.261 160.494C140.903 148.806 123.757 142.591 106.216 142.86L121.488 162.883C124.346 166.63 123.363 172.022 119.367 174.519L112.78 178.636C107.844 181.721 101.405 180.818 97.5069 176.494L71.1235 147.225L67.5084 147.732C57.3584 149.154 48.071 141.826 47.0927 131.624L46.1043 121.316C45.2765 112.683 51.4767 104.963 60.0845 103.908L90.4258 100.188C111.617 97.5907 130.403 85.3071 141.281 66.9362ZM80.686 145.885L103.449 171.138C104.748 172.579 106.895 172.88 108.54 171.852L115.127 167.735L96.746 143.635L80.686 145.885ZM98.7767 135.312C98.2622 135.272 97.7391 135.331 97.238 135.493C96.9257 135.533 96.6134 135.575 96.3011 135.619L66.3983 139.809C60.7594 140.599 55.5997 136.528 55.0562 130.86L54.0678 120.552C53.6539 116.236 56.754 112.376 61.0579 111.848L91.3991 108.129C94.1716 107.789 96.9072 107.301 99.596 106.67L102.515 134.996C101.27 135.072 100.023 135.177 98.7767 135.312ZM146.567 73.5928L157.545 152.794C144.156 141.831 127.634 135.617 110.55 134.917L107.404 104.397C123.398 98.806 137.232 88.0284 146.567 73.5928ZM85.5145 132.803C87.712 132.577 89.3099 130.612 89.0835 128.414C88.857 126.217 86.8921 124.619 84.6946 124.845L65.5605 126.817C63.363 127.043 61.7651 129.008 61.9915 131.206C62.2179 133.403 64.1829 135.001 66.3804 134.774L85.5145 132.803ZM87.0835 116.414C87.3099 118.612 85.712 120.577 83.5145 120.803L64.3804 122.775C62.1829 123.001 60.2179 121.403 59.9915 119.206C59.7651 117.008 61.363 115.043 63.5605 114.817L82.6946 112.845C84.8921 112.619 86.857 114.217 87.0835 116.414ZM168.132 84.5957C169.35 82.7522 171.831 82.2447 173.675 83.4621L171.47 86.7999C173.675 83.4621 173.676 83.4633 173.678 83.4645L173.683 83.4673L173.693 83.4743L173.721 83.4931C173.743 83.5078 173.771 83.5269 173.805 83.5503C173.874 83.5972 173.967 83.6616 174.081 83.7431C174.31 83.906 174.627 84.1379 175.014 84.4367C175.786 85.0334 176.843 85.9024 178.031 87.0264C180.391 89.2581 183.365 92.5825 185.631 96.8672C187.912 101.179 189.506 106.528 188.954 112.681C188.401 118.846 185.726 125.461 180.058 132.343C178.654 134.048 176.133 134.292 174.428 132.888C172.722 131.483 172.478 128.962 173.883 127.257C178.715 121.389 180.602 116.254 180.986 111.966C181.372 107.666 180.279 103.859 178.56 100.608C176.826 97.3299 174.487 94.6855 172.535 92.839C171.567 91.924 170.717 91.2266 170.122 90.7666C169.825 90.5371 169.593 90.3682 169.444 90.2623C169.401 90.2314 169.365 90.2059 169.336 90.1859C169.315 90.1717 169.299 90.1602 169.286 90.1515L169.261 90.1341L169.258 90.1323L168.132 84.5957ZM169.258 90.1321C169.256 90.1312 169.256 90.1311 169.257 90.132L169.258 90.1321ZM190.402 69.6237C188.648 68.2809 186.137 68.6144 184.794 70.3686L185.534 75.9722L185.537 75.9747C185.545 75.9806 185.56 75.9929 185.584 76.0114C185.63 76.0485 185.708 76.1107 185.813 76.1975C186.024 76.3713 186.346 76.6433 186.755 77.0098C187.574 77.7439 188.739 78.8518 190.064 80.3043C192.725 83.221 195.971 87.4589 198.4 92.7831C203.15 103.192 205.008 118.164 191.992 136.483C190.713 138.284 191.136 140.781 192.937 142.061C194.737 143.34 197.235 142.918 198.514 141.117C213.306 120.297 211.522 102.268 205.679 89.4621C202.811 83.1787 199.023 78.2553 195.974 74.9126C194.444 73.2353 193.084 71.939 192.093 71.0512C191.597 70.6069 191.192 70.2636 190.902 70.0248C190.757 69.9053 190.641 69.8119 190.557 69.745C190.515 69.7115 190.48 69.6846 190.454 69.6644L190.422 69.639L190.41 69.6301L190.406 69.6266C190.404 69.6251 190.402 69.6237 187.97 72.7999L190.402 69.6237Z" fill="url(#paint0_linear_245_32)"/>
<defs>
<linearGradient id="paint0_linear_245_32" x1="45.9704" y1="63.7999" x2="209.97" y2="180.8" gradientUnits="userSpaceOnUse">
<stop stop-color="#5218FA"/>
<stop offset="1" stop-color="#00D0F4"/>
</linearGradient>
</defs>
</svg>
