<svg width="900" height="150" viewBox="0 0 900 150" fill="none" xmlns="http://www.w3.org/2000/svg">
<path d="M0 123L12.5 121C25 119 50 115 75 111.8C100 108.7 125 106.3 150 111C175 115.7 200 127.3 225 127.7C250 128 275 117 300 117.8C325 118.7 350 131.3 375 138.5C400 145.7 425 147.3 450 141C475 134.7 500 120.3 525 119C550 117.7 575 129.3 600 131.7C625 134 650 127 675 124.5C700 122 725 124 750 127.8C775 131.7 800 137.3 825 140.3C850 143.3 875 143.7 887.5 143.8L900 144V0H887.5C875 0 850 0 825 0C800 0 775 0 750 0C725 0 700 0 675 0C650 0 625 0 600 0C575 0 550 0 525 0C500 0 475 0 450 0C425 0 400 0 375 0C350 0 325 0 300 0C275 0 250 0 225 0C200 0 175 0 150 0C125 0 100 0 75 0C50 0 25 0 12.5 0H0V123Z" fill="#00D0F4"/>
<path d="M0 95L12.5 99.3C25 103.7 50 112.3 75 113.2C100 114 125 107 150 107.3C175 107.7 200 115.3 225 112.8C250 110.3 275 97.7 300 95.3C325 93 350 101 375 101.7C400 102.3 425 95.7 450 97.2C475 98.7 500 108.3 525 107.8C550 107.3 575 96.7 600 96.8C625 97 650 108 675 114.2C700 120.3 725 121.7 750 118.7C775 115.7 800 108.3 825 102.8C850 97.3 875 93.7 887.5 91.8L900 90V0H887.5C875 0 850 0 825 0C800 0 775 0 750 0C725 0 700 0 675 0C650 0 625 0 600 0C575 0 550 0 525 0C500 0 475 0 450 0C425 0 400 0 375 0C350 0 325 0 300 0C275 0 250 0 225 0C200 0 175 0 150 0C125 0 100 0 75 0C50 0 25 0 12.5 0H0V95Z" fill="#00BBFE"/>
<path d="M0 71L12.5 72.2C25 73.3 50 75.7 75 75.8C100 76 125 74 150 72.3C175 70.7 200 69.3 225 75C250 80.7 275 93.3 300 97.3C325 101.3 350 96.7 375 91.3C400 86 425 80 450 81.2C475 82.3 500 90.7 525 95.8C550 101 575 103 600 102.7C625 102.3 650 99.7 675 93.8C700 88 725 79 750 76.7C775 74.3 800 78.7 825 81.3C850 84 875 85 887.5 85.5L900 86V0H887.5C875 0 850 0 825 0C800 0 775 0 750 0C725 0 700 0 675 0C650 0 625 0 600 0C575 0 550 0 525 0C500 0 475 0 450 0C425 0 400 0 375 0C350 0 325 0 300 0C275 0 250 0 225 0C200 0 175 0 150 0C125 0 100 0 75 0C50 0 25 0 12.5 0H0V71Z" fill="#00A3FF"/>
<path d="M0 75L12.5 75.3C25 75.7 50 76.3 75 77.5C100 78.7 125 80.3 150 80.5C175 80.7 200 79.3 225 74C250 68.7 275 59.3 300 55.3C325 51.3 350 52.7 375 53.3C400 54 425 54 450 57.3C475 60.7 500 67.3 525 69C550 70.7 575 67.3 600 68.2C625 69 650 74 675 72.5C700 71 725 63 750 58.7C775 54.3 800 53.7 825 58.2C850 62.7 875 72.3 887.5 77.2L900 82V0H887.5C875 0 850 0 825 0C800 0 775 0 750 0C725 0 700 0 675 0C650 0 625 0 600 0C575 0 550 0 525 0C500 0 475 0 450 0C425 0 400 0 375 0C350 0 325 0 300 0C275 0 250 0 225 0C200 0 175 0 150 0C125 0 100 0 75 0C50 0 25 0 12.5 0H0V75Z" fill="#0085FF"/>
<path d="M0 55L12.5 51C25 47 50 39 75 36C100 33 125 35 150 36.2C175 37.3 200 37.7 225 36.5C250 35.3 275 32.7 300 32.2C325 31.7 350 33.3 375 36.8C400 40.3 425 45.7 450 47.3C475 49 500 47 525 44C550 41 575 37 600 39.3C625 41.7 650 50.3 675 54.2C700 58 725 57 750 56.8C775 56.7 800 57.3 825 53.7C850 50 875 42 887.5 38L900 34V0H887.5C875 0 850 0 825 0C800 0 775 0 750 0C725 0 700 0 675 0C650 0 625 0 600 0C575 0 550 0 525 0C500 0 475 0 450 0C425 0 400 0 375 0C350 0 325 0 300 0C275 0 250 0 225 0C200 0 175 0 150 0C125 0 100 0 75 0C50 0 25 0 12.5 0H0V55Z" fill="#005FFF"/>
<path d="M0 18L12.5 17.8C25 17.7 50 17.3 75 20.2C100 23 125 29 150 28.8C175 28.7 200 22.3 225 22.7C250 23 275 30 300 31.5C325 33 350 29 375 27.2C400 25.3 425 25.7 450 27.5C475 29.3 500 32.7 525 34.3C550 36 575 36 600 36.2C625 36.3 650 36.7 675 35.2C700 33.7 725 30.3 750 26.5C775 22.7 800 18.3 825 19.7C850 21 875 28 887.5 31.5L900 35V0H887.5C875 0 850 0 825 0C800 0 775 0 750 0C725 0 700 0 675 0C650 0 625 0 600 0C575 0 550 0 525 0C500 0 475 0 450 0C425 0 400 0 375 0C350 0 325 0 300 0C275 0 250 0 225 0C200 0 175 0 150 0C125 0 100 0 75 0C50 0 25 0 12.5 0H0V18Z" fill="#5218FA"/>
</svg>
